# xmcd
#
# Track frame offsets: 
#        150
#        23132
#        41355
#        88027
#        107460
#        122507
#        146132
#        168775
#        184767
#        211047
#        222235
#
# Disc length: 3151 seconds
#
# Revision: 0
# Processed by: cddbd v1.4PL0 Copyright (c) Steve Scherf et al.
# Submitted via: ExactAudioCopy v0.90b4
#
DISCID=8b0c4d0b
DTITLE=Sergio Duarte  and Entidade Joe - Sergio Duarte  and Entidade Joe
DYEAR=2000
DGENRE=Blues
TTITLE0=Vida de Poeta
TTITLE1=Gato por Peste
TTITLE2=Não me Esqueça Baby
TTITLE3=De Trago em Trago
TTITLE4=Pode Chorar
TTITLE5=Homem do Progresso
TTITLE6=Califórnia
TTITLE7=Não Vá
TTITLE8=Digo Amém
TTITLE9=Gaitaria #2
TTITLE10=Joe the Blower
EXTD=
EXTT0=
EXTT1=
EXTT2=
EXTT3=
EXTT4=
EXTT5=
EXTT6=
EXTT7=
EXTT8=
EXTT9=
EXTT10=
PLAYORDER=
